<?xml version="1.0" standalone="no"?>
<!DOCTYPE svg PUBLIC "-//W3C//DTD SVG 20010904//EN"
 "http://www.w3.org/TR/2001/REC-SVG-20010904/DTD/svg10.dtd">
<svg version="1.0" xmlns="http://www.w3.org/2000/svg"
 width="256.000000pt" height="256.000000pt" viewBox="0 0 256.000000 256.000000"
 preserveAspectRatio="xMidYMid meet">
<metadata>
Created by potrace 1.14, written by Peter Selinger 2001-2017
</metadata>
<g transform="translate(0.000000,256.000000) scale(0.100000,-0.100000)"
fill="#000000" stroke="none">
<path d="M143 2057 c-51 -10 -102 -52 -124 -101 -17 -39 -19 -77 -19 -671 0
-411 4 -643 11 -668 13 -49 66 -102 115 -117 28 -8 347 -10 1175 -8 l1135 3
43 28 c27 18 50 44 62 70 18 40 19 75 19 682 0 604 -1 642 -19 681 -20 43 -68
86 -111 99 -33 11 -2238 12 -2287 2z m490 -388 c12 -14 36 -42 54 -63 18 -21
63 -78 100 -127 37 -49 70 -88 73 -88 3 0 60 68 127 152 l122 153 120 -1 c67
0 121 -2 122 -5 0 -3 1 -191 2 -418 2 -406 2 -412 -18 -413 -115 -4 -209 -3
-216 2 -6 3 -10 102 -10 239 0 200 -2 232 -14 219 -7 -8 -63 -76 -123 -152
l-110 -137 -120 150 c-66 82 -122 144 -124 137 -2 -6 -4 -112 -3 -234 1 -195
-1 -223 -14 -224 -21 -1 -203 -1 -218 0 -17 1 -19 827 -3 833 6 2 60 3 121 3
107 0 112 -1 132 -26z m1386 -177 c0 -111 2 -206 5 -210 2 -4 56 -7 119 -7 78
1 114 -2 109 -10 -9 -14 -353 -415 -357 -415 -2 0 -60 66 -130 148 -70 81
-148 171 -173 201 -26 29 -50 59 -54 65 -5 9 25 12 113 11 l119 0 1 50 c0 27
0 119 -1 203 0 84 1 156 4 160 2 4 58 7 124 7 l121 0 0 -203z"/>
</g>
</svg>
